<?xml version="1.0" encoding="iso-8859-1"?>
<svg version="1.1" id="Layer_1" xmlns="http://www.w3.org/2000/svg" xmlns:xlink="http://www.w3.org/1999/xlink" x="0px" y="0px" viewBox="0 0 512 512" style="enable-background:new 0 0 512 512;" xml:space="preserve">
<g>
	<path d="M0,195.989c1.161,51.224,17.33,100.199,46.952,141.987c22.717,32.046,52,58.089,85.902,76.659h246.293 c33.902-18.57,63.185-44.613,85.902-76.659C494.67,296.188,510.84,247.213,512,195.989H0z"/>
	<rect x="156.295" y="448.032" width="199.415" height="38.725"/>
	<path d="M412.737,95.752c-5.988-20.163-20.438-36.907-40.323-45.762c-19.883-8.854-41.994-8.388-60.982,0.652 c-13.671-15.982-33.682-25.4-55.446-25.4c-21.764,0-41.775,9.417-55.446,25.399c-18.991-9.041-41.102-9.506-60.984-0.651 c-19.885,8.853-34.335,25.597-40.323,45.762c-21.019-0.533-41.415,8.033-55.975,24.203 c-10.932,12.141-17.255,27.103-18.573,42.631h462.599c-1.317-15.529-7.64-30.489-18.573-42.631 C454.149,103.784,433.746,95.216,412.737,95.752z"/>
	<polygon points="487.284,162.587 487.284,162.587 487.284,162.588"/>
</g>
</svg>
