<?xml version="1.0" encoding="UTF-8" standalone="no"?>
<svg
   xmlns:dc="http://purl.org/dc/elements/1.1/"
   xmlns:cc="http://creativecommons.org/ns#"
   xmlns:rdf="http://www.w3.org/1999/02/22-rdf-syntax-ns#"
   xmlns:svg="http://www.w3.org/2000/svg"
   xmlns="http://www.w3.org/2000/svg"
   xmlns:xlink="http://www.w3.org/1999/xlink"
   xmlns:sodipodi="http://sodipodi.sourceforge.net/DTD/sodipodi-0.dtd"
   xmlns:inkscape="http://www.inkscape.org/namespaces/inkscape"
   height="32"
   viewBox="32 16 4 34"
   width="64"
   version="1.1"
   id="svg374"
   sodipodi:docname="filete.svg"
   inkscape:version="1.0.2-2 (e86c870879, 2021-01-15)">
  <metadata
     id="metadata378">
    <rdf:RDF>
      <cc:Work
         rdf:about="">
        <dc:format>image/svg+xml</dc:format>
        <dc:type
           rdf:resource="http://purl.org/dc/dcmitype/StillImage" />
      </cc:Work>
    </rdf:RDF>
  </metadata>
  <sodipodi:namedview
     pagecolor="#ffffff"
     bordercolor="#666666"
     borderopacity="1"
     objecttolerance="10"
     gridtolerance="10"
     guidetolerance="10"
     inkscape:pageopacity="0"
     inkscape:pageshadow="2"
     inkscape:window-width="1776"
     inkscape:window-height="1017"
     id="namedview376"
     showgrid="false"
     inkscape:zoom="11.140625"
     inkscape:cx="35.507056"
     inkscape:cy="31.654053"
     inkscape:window-x="2696"
     inkscape:window-y="0"
     inkscape:window-maximized="0"
     inkscape:current-layer="text1205" />
  <defs
     id="defs239">
    <style
       id="style229">.cls-1,.cls-17{fill:#89643d;}.cls-2{fill:#af8756;}.cls-3{fill:#bd925d;}.cls-4{fill:#af7838;}.cls-5{fill:#6e5031;}.cls-6{fill:#4a230a;}.cls-7{fill:#2f1e08;}.cls-8{fill:#ffe99a;}.cls-9{fill:#ff2f0a;}.cls-10{fill:#00c40a;}.cls-11{fill:#59380f;opacity:0.46;}.cls-12{fill:#ffd8a6;}.cls-13{fill:url(#linear-gradient);}.cls-14{fill:url(#linear-gradient-2);}.cls-15{fill:url(#linear-gradient-3);}.cls-16{fill:url(#linear-gradient-4);}.cls-17{opacity:0.49;}.cls-18{fill:#ff8142;}.cls-19{fill:#ff5d30;}.cls-20{fill:#ffe9cc;}.cls-21{fill:#ffd7a3;}.cls-22{fill:#ffaf59;}.cls-23{fill:#68c21d;}.cls-24{fill:#89ff26;}.cls-25{fill:#dcf95f;}</style>
    <linearGradient
       gradientTransform="translate(71.822 70.867) rotate(139.733)"
       gradientUnits="userSpaceOnUse"
       id="linear-gradient"
       x1="14.678"
       x2="9.061"
       y1="49.425"
       y2="60.746">
      <stop
         offset="0"
         stop-color="#56ff4a"
         id="stop231" />
      <stop
         offset="1"
         stop-color="#21ff2d"
         id="stop233" />
    </linearGradient>
    <linearGradient
       gradientTransform="matrix(-0.551, 0.834, -0.834, -0.551, 79.435, 59.696)"
       id="linear-gradient-2"
       x1="9.16"
       x2="3.543"
       xlink:href="#linear-gradient"
       y1="43.922"
       y2="55.243" />
    <linearGradient
       gradientTransform="translate(82.012 62.805) rotate(120.135)"
       id="linear-gradient-3"
       x1="-4.343"
       x2="-9.961"
       xlink:href="#linear-gradient"
       y1="32.733"
       y2="44.054" />
    <linearGradient
       gradientTransform="translate(74.878 -16.686) rotate(68.356)"
       id="linear-gradient-4"
       x1="38.431"
       x2="32.814"
       xlink:href="#linear-gradient"
       y1="32.636"
       y2="43.957" />
  </defs>
  <title
     id="title241" />
  <g
     id="fish">
    <rect
       class="cls-1"
       height="28.582"
       rx="2.728"
       ry="2.728"
       transform="translate(-0.109 0.105) rotate(-0.192)"
       width="60.365"
       x="1.215"
       y="18.349"
       id="rect243" />
    <path
       class="cls-2"
       d="M5.019,45.77a2.339,2.339,0,0,1-2.373-2.287L2.573,21.907A2.34,2.34,0,0,1,4.94,19.6l52.828-.176a2.341,2.341,0,0,1,2.382,2.286l.072,21.576a2.242,2.242,0,0,1-.687,1.622,2.4,2.4,0,0,1-1.68.681Z"
       id="path245" />
    <path
       class="cls-3"
       d="M57.777,19.178v.5A2.089,2.089,0,0,1,59.9,21.715l.072,21.576a2.088,2.088,0,0,1-2.117,2.052L5.019,45.52A2.088,2.088,0,0,1,2.9,43.482L2.823,21.907a2.088,2.088,0,0,1,2.118-2.052l52.828-.177.008-.5m0,0h-.009l-52.828.177a2.586,2.586,0,0,0-2.616,2.553L2.4,43.484A2.585,2.585,0,0,0,5.019,46.02h.009l52.828-.177a2.585,2.585,0,0,0,2.616-2.554L60.4,21.714a2.584,2.584,0,0,0-2.624-2.536Z"
       id="path247" />
    <path
       class="cls-4"
       d="M2.417,29.667S25.25,22.333,37.5,22.917s18.667,3.666,22.833,4.166V28.5s-15.25-4.417-22.75-4.167S9.25,29.083,2.333,33.667Z"
       id="path249" />
    <path
       class="cls-4"
       d="M60.417,37.917s-9-8.584-21.084-9.834S12.75,45.917,12.75,45.917h1.083S28.667,27.5,39.333,28.833,60.417,40.917,60.417,41.167Z"
       id="path251" />
    <rect
       class="cls-5"
       height="19.142"
       rx="4.72"
       ry="4.72"
       transform="translate(-0.108 0.036) rotate(-0.192)"
       width="10.62"
       x="5.326"
       y="22.739"
       id="rect253" />
    <path
       class="cls-6"
       d="M15.1,36.685a4.026,4.026,0,0,1-3.911,4.132l-.981,0a4.025,4.025,0,0,1-3.938-4.106l-.029-8.467a4.027,4.027,0,0,1,3.911-4.132l.981,0a4.025,4.025,0,0,1,3.938,4.106Z"
       id="path255" />
    <path
       class="cls-7"
       d="M14.555,36.233a3.532,3.532,0,0,1-3.432,3.627l-.861,0a3.533,3.533,0,0,1-3.457-3.6L6.78,28.828A3.533,3.533,0,0,1,10.213,25.2l.861,0a3.533,3.533,0,0,1,3.457,3.6Z"
       id="path257" />
    <path
       class="cls-8"
       d="M12.083,31.875s-1,1.208-.583,1.542a1.425,1.425,0,0,0,1.458-.084A1.7,1.7,0,0,0,12.083,31.875Z"
       id="path259" />
    <path
       class="cls-8"
       d="M8.083,36.542s-.583.208-.125.708a1.015,1.015,0,0,0,1.084.25A1.085,1.085,0,0,0,8.083,36.542Z"
       id="path261" />
    <path
       class="cls-8"
       d="M12.125,37.042s-1,.25-.875.708a.732.732,0,0,0,.625.5l.625-.042S12.75,37.333,12.125,37.042Z"
       id="path263" />
    <path
       class="cls-8"
       d="M7.939,28.165s.2.587.706.135a1.013,1.013,0,0,0,.266-1.079A1.084,1.084,0,0,0,7.939,28.165Z"
       id="path265" />
    <path
       class="cls-8"
       d="M11,30.708s-.583.209-.125.709a1.013,1.013,0,0,0,1.083.25A1.085,1.085,0,0,0,11,30.708Z"
       id="path267" />
    <path
       class="cls-8"
       d="M10.083,38.458S9.083,39.667,9.5,40a1.428,1.428,0,0,0,1.458-.083A1.7,1.7,0,0,0,10.083,38.458Z"
       id="path269" />
    <path
       class="cls-8"
       d="M13.083,27.083s-1,1.209-.583,1.542a1.428,1.428,0,0,0,1.458-.083A1.7,1.7,0,0,0,13.083,27.083Z"
       id="path271" />
    <path
       class="cls-8"
       d="M12.583,34.167s-1,1.208-.583,1.541a1.423,1.423,0,0,0,1.458-.083A1.7,1.7,0,0,0,12.583,34.167Z"
       id="path273" />
    <path
       class="cls-8"
       d="M9.583,29.708s-1,.25-.875.709a.732.732,0,0,0,.625.5l.625-.042S10.208,30,9.583,29.708Z"
       id="path275" />
    <path
       class="cls-8"
       d="M10.208,35.167s-1,.25-.875.708a.732.732,0,0,0,.625.5l.625-.042S10.833,35.458,10.208,35.167Z"
       id="path277" />
    <path
       class="cls-8"
       d="M11.875,25.083s-1,.25-.875.709a.732.732,0,0,0,.625.5l.625-.042S12.5,25.375,11.875,25.083Z"
       id="path279" />
    <path
       class="cls-9"
       d="M10.313,32.725c.081.118-.033.338-.255.491h0c-.222.154-.467.183-.549.065l-.442-.638c-.081-.118.033-.337.255-.491h0c.221-.154.467-.183.549-.065Z"
       id="path281" />
    <path
       class="cls-9"
       d="M13.13,38.862c-.127.066-.331-.075-.455-.315h0c-.124-.239-.121-.487.006-.552l.689-.357c.127-.066.331.075.455.315h0c.124.239.121.487-.006.552Z"
       id="path283" />
    <path
       class="cls-9"
       d="M11.43,29.009c-.049.134-.295.167-.548.074h0c-.253-.094-.418-.279-.368-.413l.269-.728c.05-.134.295-.167.548-.073h0c.253.093.418.278.369.412Z"
       id="path285" />
    <path
       class="cls-10"
       d="M8.24,33.325c-.049.134-.295.167-.548.074h0c-.253-.094-.418-.279-.368-.413l.269-.728c.05-.134.295-.167.548-.073h0c.253.093.418.278.369.412Z"
       id="path287" />
    <path
       class="cls-10"
       d="M11.638,35.176c-.049.134-.294.167-.548.073h0c-.253-.093-.418-.278-.368-.412l.27-.728c.049-.134.294-.167.547-.074h0c.254.094.418.279.369.413Z"
       id="path289" />
    <path
       class="cls-10"
       d="M10.532,26.534c-.05.134-.295.167-.548.073h0c-.253-.094-.418-.278-.369-.412l.27-.729c.049-.134.295-.167.548-.073h0c.253.094.418.278.368.412Z"
       id="path291" />
    <path
       class="cls-11"
       d="M11.687,24.313a5.826,5.826,0,0,0-2.375.187c-1.25.375-1.937,1.438-.375,2.625a46.268,46.268,0,0,1,4.5,4.188c.5.562,1.375.375,1.375-.938s-.062-2.562-.062-2.562A4.119,4.119,0,0,0,11.687,24.313Z"
       id="path293" />
    <ellipse
       class="cls-12"
       cx="12.281"
       cy="25.5"
       rx="0.688"
       ry="0.906"
       transform="translate(-15.806 28.993) rotate(-71.372)"
       id="ellipse295" />
    <ellipse
       class="cls-12"
       cx="13.813"
       cy="27.187"
       rx="0.3"
       ry="0.395"
       transform="translate(-16.363 31.592) rotate(-71.372)"
       id="ellipse297" />
    <path
       class="cls-11"
       d="M6.508,35.6a5.959,5.959,0,0,0,.406,2.526,3.635,3.635,0,0,0,3.191,2.165l1.091.059s.937-.063.125-.969S6.508,33.722,6.508,35.6Z"
       id="path299" />
    <ellipse
       class="cls-12"
       cx="8.154"
       cy="38.742"
       rx="0.3"
       ry="0.395"
       transform="translate(-31.163 34.094) rotate(-71.372)"
       id="ellipse301" />
    <path
       class="cls-13"
       d="M26.889,42.785s.949,1.508,2.036.734a1.61,1.61,0,0,0,.49-1.358s1.61.486,1.931-.869-.1-1.519-.1-1.519,1.341-.777.821-1.784-1.028-1.169-1.028-1.169,1.422-1.031.563-2.118-1.365-1.08-1.365-1.08A2.363,2.363,0,0,0,28.26,31.2s-.951-1.676-2.3-1.743a1.929,1.929,0,0,0-2.343,1.634,6.3,6.3,0,0,0-.052,2.534s-.419.259-.658,1.36a1.883,1.883,0,0,0,.53,1.766,2.119,2.119,0,0,0-.736,1.868,2.713,2.713,0,0,0,1.545,1.922A2.525,2.525,0,0,0,26.889,42.785Z"
       id="path303" />
    <path
       class="cls-14"
       d="M36.064,43.766s1.333,1.182,2.16.134a1.608,1.608,0,0,0,.089-1.44s1.683.015,1.61-1.376-.525-1.429-.525-1.429,1.069-1.122.288-1.942-1.315-.834-1.315-.834,1.076-1.389-.053-2.192-1.613-.654-1.613-.654a2.363,2.363,0,0,0-2.574-1.773s-1.382-1.343-2.7-1.028-1.838.916-1.791,2.226a6.29,6.29,0,0,0,.661,2.447s-.329.366-.25,1.489a1.885,1.885,0,0,0,1,1.548,2.119,2.119,0,0,0-.183,2,2.713,2.713,0,0,0,2.022,1.413A2.525,2.525,0,0,0,36.064,43.766Z"
       id="path305" />
    <path
       class="cls-15"
       d="M54.248,43.351s1.4,1.1,2.164.009a1.606,1.606,0,0,0,.006-1.443s1.68-.083,1.527-1.467-.607-1.4-.607-1.4,1-1.182.176-1.956-1.361-.756-1.361-.756.993-1.449-.18-2.185-1.648-.56-1.648-.56a2.363,2.363,0,0,0-2.672-1.621s-1.458-1.26-2.754-.87a1.928,1.928,0,0,0-1.659,2.326,6.284,6.284,0,0,0,.8,2.405s-.308.384-.164,1.5a1.886,1.886,0,0,0,1.091,1.487,2.119,2.119,0,0,0-.067,2.006A2.712,2.712,0,0,0,51,42.123,2.527,2.527,0,0,0,54.248,43.351Z"
       id="path307" />
    <path
       class="cls-16"
       d="M58.284,32.812s1.732-.417,1.346-1.695c-.21-.7-1.131-.9-1.131-.9s.975-1.371-.207-2.107-1.472-.387-1.472-.387-.309-1.519-1.428-1.348a2.209,2.209,0,0,0-1.437.6s-.523-1.678-1.827-1.211-1.459.948-1.459.948a2.362,2.362,0,0,0-2.927,1.1s-1.893.365-2.388,1.625a1.929,1.929,0,0,0,.8,2.743,6.3,6.3,0,0,0,2.385.858s.111.479,1.078,1.058a1.884,1.884,0,0,0,1.843.062A2.119,2.119,0,0,0,53,35.454a2.715,2.715,0,0,0,2.315-.85A2.527,2.527,0,0,0,58.284,32.812Z"
       id="path309" />
    <path
       class="cls-17"
       d="M21.723,31.366s11.164,7.643,14.694,9.551c3.331,1.8,12.5,6.5,18.583-2.335a6.365,6.365,0,0,0,1.108-4.274c-.306-2.892-1.973-7.586-9.063-10.513a24.271,24.271,0,0,0-9.22-1.8c-3.908-.007-10.636-.07-11.936-.417-1.856-.494-3.243,3.733-.252,4.281a10.19,10.19,0,0,1,1.021.239,1.248,1.248,0,0,1-.646,2.409,8.577,8.577,0,0,1-1.044-.338C21.44,26.788,20.451,30.5,21.723,31.366Z"
       id="path311" />
    <path
       class="cls-18"
       d="M21.893,30.869s11.164,7.642,14.694,9.55c3.331,1.8,12.5,6.5,18.583-2.334a6.366,6.366,0,0,0,1.107-4.274c-.3-2.893-1.972-7.586-9.062-10.513a24.275,24.275,0,0,0-9.22-1.8c-3.908-.007-10.636-.071-11.936-.417-1.856-.5-3.244,3.732-.252,4.281a10.1,10.1,0,0,1,1.02.239,1.247,1.247,0,0,1-.645,2.408,8.406,8.406,0,0,1-1.044-.338C21.61,26.29,20.621,30,21.893,30.869Z"
       id="path313"
       style="fill:#932d31;fill-opacity:1" />
    <path
       class="cls-19"
       d="M34.592,21.473c1.677,2.616,4.53,7.122,5.916,9.651l.967-.918a75.784,75.784,0,0,0-5.216-8.719C35.722,21.484,35.163,21.48,34.592,21.473Z"
       id="path315" />
    <path
       class="cls-19"
       d="M47.363,23.364a21.371,21.371,0,0,0-4.686,6.061l1.756.163a16.5,16.5,0,0,1,4.932-5.256A21.122,21.122,0,0,0,47.363,23.364Z"
       id="path317" />
    <path
       class="cls-19"
       d="M54.048,28.249c-2.075.282-5.477.972-7.62,2.613L47.506,32.2a29.209,29.209,0,0,1,7.713-2.059A11.521,11.521,0,0,0,54.048,28.249Z"
       id="path319" />
    <path
       class="cls-19"
       d="M48.83,42.9a9.923,9.923,0,0,0,2-.8A29.47,29.47,0,0,1,46.2,35.284l-1.694.3C45.082,38.433,47.482,41.41,48.83,42.9Z"
       id="path321" />
    <path
       class="cls-19"
       d="M40.734,34.2a20.968,20.968,0,0,0-.406,7.961,19.411,19.411,0,0,0,2.192.682,16.678,16.678,0,0,1-.356-7.612Z"
       id="path323" />
    <path
       class="cls-19"
       d="M29.793,36.169a73.513,73.513,0,0,0,10.549-3.345L40.216,31.5c-3.078,1.13-9.264,2.941-11.9,3.7C28.806,35.519,29.3,35.845,29.793,36.169Z"
       id="path325" />
    <circle
       class="cls-20"
       cx="43.754"
       cy="32.569"
       r="3.889"
       id="circle327" />
    <circle
       class="cls-21"
       cx="43.758"
       cy="32.572"
       r="3.155"
       id="circle329" />
    <path
       class="cls-22"
       d="M47.4,36.517a21.521,21.521,0,0,0,3.664,4.8,13.17,13.17,0,0,0,2.952-2.845l-.721-.558.964.17a4.817,4.817,0,0,0,.935-2.1L49.225,34.3a7.187,7.187,0,0,1-1.116,1.441l.537.647-.76-.358Z"
       id="path331" />
    <path
       class="cls-22"
       d="M49.738,32.971s3.929-.013,5.432.056c0,0-.106-.831-.207-1.371a38.789,38.789,0,0,0-5.231.5Z"
       id="path333" />
    <path
       class="cls-22"
       d="M42.623,37.818a6.391,6.391,0,0,0,1.4.082A28.585,28.585,0,0,0,46.4,42.275a12.63,12.63,0,0,1-2.808.054A28.6,28.6,0,0,1,42.623,37.818Z"
       id="path335" />
    <path
       class="cls-22"
       d="M39.819,35.186A49.291,49.291,0,0,0,37.933,40.1l-1.254-.664s1.848-3.18,2.83-4.648Z"
       id="path337" />
    <path
       class="cls-22"
       d="M46.841,29.1A32.076,32.076,0,0,1,52.1,27.17a15.377,15.377,0,0,0-2.28-1.919,17.688,17.688,0,0,0-3.67,3.152A2.242,2.242,0,0,1,46.841,29.1Z"
       id="path339" />
    <path
       class="cls-22"
       d="M32.33,36.918s1.276.834,1.841,1.2l4.991-3.667-.321-.479A66.785,66.785,0,0,1,32.33,36.918Z"
       id="path341" />
    <path
       class="cls-22"
       d="M39.6,22.566s1.573,5.214,1.777,6.141a1.9,1.9,0,0,1,.783-.316l.343-1.733.057,1.812a17.145,17.145,0,0,1,3.054-4.937s-2.555-.671-3.477-.77l-.215,1.37-.27-1.438Z"
       id="path343" />
    <path
       class="cls-22"
       d="M28.052,32.914s8.2-1.259,10.084-2.105c0,0-7.3-.89-8.391-1.272S28.052,32.914,28.052,32.914Z"
       id="path345" />
    <path
       class="cls-22"
       d="M31.132,22.7s6.151,5.566,7.258,7.31c0,0-6.586-3.278-7.7-3.559S31.132,22.7,31.132,22.7Z"
       id="path347" />
    <circle
       class="cls-23"
       cx="50.438"
       cy="26.871"
       r="5.234"
       id="circle349" />
    <path
       class="cls-24"
       d="M48.761,25.733,47.548,24.52a.521.521,0,0,0-.812.106,4.291,4.291,0,0,0-.539,1.335.521.521,0,0,0,.5.645h1.7A.511.511,0,0,0,48.761,25.733Z"
       id="path351" />
    <path
       class="cls-24"
       d="M48.4,27.294H46.722a.52.52,0,0,0-.5.655,4.332,4.332,0,0,0,.555,1.293.52.52,0,0,0,.807.1l1.173-1.173A.511.511,0,0,0,48.4,27.294Z"
       id="path353" />
    <path
       class="cls-24"
       d="M50.808,23.175v1.711a.511.511,0,0,0,.873.361l1.2-1.2a.521.521,0,0,0-.1-.807,4.307,4.307,0,0,0-1.32-.562A.521.521,0,0,0,50.808,23.175Z"
       id="path355" />
    <path
       class="cls-24"
       d="M49.472,22.664a4.292,4.292,0,0,0-1.342.554.52.52,0,0,0-.1.809l1.22,1.22a.511.511,0,0,0,.873-.361V23.162A.521.521,0,0,0,49.472,22.664Z"
       id="path357" />
    <path
       class="cls-24"
       d="M52.528,26.606h1.651a.52.52,0,0,0,.5-.643,4.26,4.26,0,0,0-.518-1.3.52.52,0,0,0-.813-.109l-1.18,1.18A.511.511,0,0,0,52.528,26.606Z"
       id="path359" />
    <path
       class="cls-24"
       d="M52.167,28.167l1.14,1.14a.521.521,0,0,0,.809-.1,4.3,4.3,0,0,0,.533-1.258.52.52,0,0,0-.5-.654H52.528A.511.511,0,0,0,52.167,28.167Z"
       id="path361" />
    <path
       class="cls-24"
       d="M50.808,29.014v1.605a.521.521,0,0,0,.651.5A4.276,4.276,0,0,0,52.71,30.6a.519.519,0,0,0,.1-.81l-1.134-1.134A.511.511,0,0,0,50.808,29.014Z"
       id="path363" />
    <path
       class="cls-24"
       d="M49.247,28.653l-1.154,1.154a.52.52,0,0,0,.108.812,4.278,4.278,0,0,0,1.274.512.52.52,0,0,0,.645-.5V29.014A.511.511,0,0,0,49.247,28.653Z"
       id="path365" />
    <path
       class="cls-25"
       d="M52.048,23.446a.394.394,0,0,1,.616-.092c.342.32-.457,1.1-.685,1.347S51.477,24.222,52.048,23.446Z"
       id="path367" />
    <path
       class="cls-25"
       d="M53.97,25.646s.484-.1.5.371-1.1.452-1.437.468S53.018,25.791,53.97,25.646Z"
       id="path369" />
    <path
       class="cls-25"
       d="M53.87,28.535a.394.394,0,0,1,.092.616c-.32.343-1.1-.456-1.347-.684S53.094,27.965,53.87,28.535Z"
       id="path371" />
    <g
       aria-label="Nanaryû"
       transform="scale(0.92487053,1.0812324)"
       id="text1205"
       style="font-style:normal;font-weight:normal;font-size:49.9575px;line-height:0.25;font-family:sans-serif;fill:#ffffff;fill-opacity:1;stroke:#95672e;stroke-width:0.4;stroke-miterlimit:4;stroke-dasharray:none;stroke-opacity:1;image-rendering:optimizeSpeed">
      <path
         d="M 8.0481919,23.815116 7.8920747,23.18089 q 0.058544,-0.195146 0.1170879,-0.390293 0.058544,-0.204903 0.1073306,-0.40005 0.058544,-0.136603 0.1951465,-0.204904 0.1463598,-0.07806 0.3805356,-0.07806 0.087816,0 0.2634478,-0.03903 0.1853891,-0.03903 0.2634477,-0.03903 0.087816,0 0.2341758,0.136603 0.1463598,0.136602 0.2049038,0.156117 0.068301,-0.04879 0.1658745,-0.165875 0.1073306,-0.117088 0.2536901,-0.312234 0.126846,-0.156117 0.243933,-0.253691 0.117088,-0.09757 0.253691,-0.136602 0.156117,0.07806 0.273205,0.126845 0.0683,0.03903 0.08782,0.08782 0.02927,0.04879 0.02927,0.136603 0,0.04879 -0.04879,0.214661 -0.04879,0.156117 -0.14636,0.429322 -0.10733,0.29272 -0.165874,0.487866 -0.05854,0.195147 -0.07806,0.302477 -0.14636,0.224419 -0.234176,0.409808 -0.07806,0.175632 -0.07806,0.331749 0,0.195146 0.117088,0.585439 0.117088,0.380536 0.341506,0.956218 0.312234,0.780586 0.634226,1.629473 0.29272,0.936703 0.614712,1.814862 0.321991,0.868402 0.673255,1.668503 0.361021,0.83913 0.595197,1.248937 0.234176,0.409808 0.351263,0.409808 0.09757,0 0.136603,-0.107331 0.04879,-0.117087 0.04879,-0.361021 0,-0.09757 0.01951,-0.25369 0.02927,-0.156117 0.08782,-0.341506 0.08782,-0.263448 0.165875,-0.595197 0.09757,-0.507381 0.175631,-0.887917 0.08782,-0.380535 0.14636,-0.65374 0.03903,-0.175632 0.08782,-0.741557 0.04879,-0.565925 0.09757,-1.5319 0,-0.09757 0.02927,-0.273205 0.03903,-0.175632 0.0683,-0.40005 0.03903,-0.224419 0.05854,-0.380536 0.01951,-0.165874 0.01951,-0.29272 0,-0.224418 -0.04879,-0.663498 -0.04879,-0.448837 -0.04879,-0.673255 0.14636,-0.614711 0.273205,-1.200151 0.107331,-0.507381 0.204904,-0.83913 0.09757,-0.341506 0.165874,-0.517138 0.156118,-0.351264 0.380536,-0.604954 0.224419,-0.263448 0.497624,-0.429322 h 0.07806 q 0.09757,0 0.126845,0.03903 0.03903,0.03903 0.03903,0.126845 -0.04879,0.204904 -0.08782,0.312235 0.02927,0.175631 0.05854,0.370778 -0.02927,0.243933 -0.0683,0.409808 -0.01951,0.10733 -0.03903,0.331749 -0.01951,0.214661 -0.01951,0.526895 0,0.117088 -0.02927,0.507381 -0.02927,0.380536 -0.107331,1.024519 -0.05854,0.917188 -0.14636,1.82462 -0.07806,0.907431 -0.165874,1.814862 -0.07806,1.09282 -0.224419,2.000251 -0.14636,0.897674 -0.351263,1.609959 -0.04879,0.429322 -0.18539,0.956218 -0.126845,0.526895 -0.331749,1.141606 l -0.302477,0.487867 q -0.02927,0.03903 -0.614711,0.25369 -0.58544,0.204904 -0.653741,0.204904 -0.14636,0 -0.439079,-0.380536 -0.29272,-0.390293 -0.69277,-1.180636 -0.380536,-0.712285 -0.604955,-1.170879 -0.224418,-0.468351 -0.282962,-0.702527 -0.01952,-0.08782 -0.05854,-0.224419 -0.03903,-0.136602 -0.08782,-0.312234 Q 10.721699,30.089076 10.419222,29.45485 10.126502,28.820624 9.736209,27.952222 9.6679077,27.737561 9.5605772,27.542414 9.4630039,27.33751 9.316644,27.113092 l -0.068301,0.02927 q -0.068301,0.195146 -0.1366026,0.487866 -0.068301,0.29272 -0.1561171,0.702527 -0.097573,0.263448 -0.2049038,0.468352 -0.1463599,0.565925 -0.3317491,1.229423 -0.1853891,0.663498 -0.4000503,1.424569 -0.058544,0.253691 -0.1170878,0.526896 -0.058544,0.273205 -0.1366026,0.565924 l -0.1756318,0.321992 q -0.039029,0.29272 -0.087816,0.575682 -0.068301,0.224419 -0.1756319,0.54641 -0.097573,0.312235 -0.2439331,0.751314 -0.029272,0.224419 -0.1463598,0.331749 -0.1073306,0.117088 -0.3024771,0.126846 -0.019515,0.03903 -0.078059,0.07806 -0.058544,0.04879 -0.1951465,0.08782 -0.097573,0.01952 -0.1463598,-0.10733 -0.048787,-0.117088 -0.048787,-0.351264 0,-0.136603 0.048787,-0.429322 0.048787,-0.29272 0.1463598,-0.741557 0.1073306,-0.507381 0.1658746,-0.790343 0.068301,-0.29272 0.087816,-0.370779 0.039029,-0.234175 0.087816,-0.614711 0.048787,-0.380536 0.1073305,-0.878159 0.019515,-0.126845 0.058544,-0.312235 0.048787,-0.195146 0.1170879,-0.448836 0.048787,-0.195147 0.1951465,-1.053791 0.1463598,-0.868402 0.3805356,-2.41006 0.2536904,-1.512385 0.4878662,-3.044285 z"
         style="font-style:normal;font-variant:normal;font-weight:normal;font-stretch:normal;font-size:19.983px;font-family:Mistral;-inkscape-font-specification:Mistral;fill:#ffffff;fill-opacity:1;stroke:#95672e;stroke-width:0.4;stroke-miterlimit:4;stroke-dasharray:none;stroke-opacity:1"
         id="path1207" />
      <path
         d="m 16.517549,31.279469 0.887917,-0.585439 q 0.04879,-0.04879 0.117088,-0.126845 0.0683,-0.08782 0.156117,-0.243933 0.0683,-0.126846 0.175632,-0.214662 0.117088,-0.08782 0.263447,-0.156117 0.07806,-0.09757 0.224419,-0.243933 0.14636,-0.14636 0.370778,-0.341506 0.107331,-0.05854 0.273205,-0.165875 0.165875,-0.117088 0.361021,-0.302477 0.887917,-0.83913 1.551415,-1.258695 0.673255,-0.419565 1.131849,-0.419565 0.253691,0 0.370779,0.107331 0.126845,0.107331 0.126845,0.302477 0,0.204904 -0.07806,0.361021 -0.0683,0.156117 -0.224418,0.263448 -0.243933,0.175632 -0.526896,0.390293 -0.156117,0.204904 -0.380535,0.439079 -0.224419,0.224419 -0.526896,0.448837 -0.09757,0.126845 -0.165874,0.224419 -0.04879,0.04879 -0.185389,0.175632 -0.136603,0.126845 -0.361021,0.292719 -0.09757,0.214661 -0.429323,0.556168 -0.321991,0.341506 -0.868401,0.819615 -0.0683,0.0683 -0.243934,0.312234 -0.175631,0.243933 -0.458594,0.643984 l 0.0683,0.08782 q 0.214662,-0.0683 0.448837,-0.234176 0.234176,-0.165875 0.517139,-0.43908 0.331749,-0.302477 0.536652,-0.487866 0.214662,-0.195146 0.302477,-0.25369 0.0683,-0.03903 0.136603,-0.07806 0.0683,-0.03903 0.156117,-0.09757 0.448837,-0.536653 0.83913,-0.790343 0.390293,-0.263448 0.722042,-0.263448 0.204904,0 0.312234,0.165874 0.107331,0.156118 0.126846,0.478109 -0.01951,0.487866 -0.01951,0.936703 -0.0098,0.312235 0.165874,0.565925 0.18539,0.243933 0.478109,0.243933 0.08782,0 0.165875,-0.04879 0.08782,-0.04879 0.175632,-0.126846 0.0683,-0.08781 0.126845,-0.165874 0.0683,-0.07806 0.136602,-0.156117 0.03903,-0.01951 0.107331,-0.0683 0.07806,-0.04879 0.14636,-0.117087 0.136602,0.292719 0.224418,0.517138 0.09757,0.214661 0.14636,0.380535 -0.224418,0.204904 -0.448837,0.429323 -0.214661,0.214661 -0.458594,0.409807 -0.29272,0.224419 -0.565925,0.341507 -0.273205,0.10733 -0.54641,0.10733 -0.634226,0 -0.975732,-0.361021 -0.341507,-0.361021 -0.400051,-1.09282 0,-0.08782 -0.02927,-0.175632 -0.01951,-0.09757 -0.09757,-0.195146 -0.04879,0.04879 -0.10733,0.10733 -0.05854,0.04879 -0.136603,0.136603 -0.126845,0.09757 -0.321992,0.243933 -0.185389,0.14636 -0.439079,0.351263 -0.341507,0.351264 -0.575682,0.575683 -0.234176,0.224418 -0.331749,0.321991 -0.195147,0.165875 -0.458595,0.331749 -0.25369,0.165875 -0.575682,0.341507 -0.204904,0.10733 -0.351263,0.165874 -0.14636,0.0683 -0.214662,0.0683 -0.468351,0 -0.69277,-0.224418 -0.224418,-0.234176 -0.224418,-0.712285 0,-0.263447 0.117088,-0.497623 0.10733,-0.243933 0.331749,-0.468352 0.01952,-0.126845 0.01952,-0.204904 0,-0.04879 -0.02927,-0.09757 -0.01952,-0.05854 -0.05854,-0.126845 -0.05854,-0.136603 -0.126846,-0.302477 -0.07806,-0.175632 -0.165874,-0.370778 0.03903,-0.03903 0.117088,-0.14636 0.0683,-0.117088 0.165874,-0.282963 z"
         style="font-style:normal;font-variant:normal;font-weight:normal;font-stretch:normal;font-size:19.983px;font-family:Mistral;-inkscape-font-specification:Mistral;fill:#ffffff;fill-opacity:1;stroke:#95672e;stroke-width:0.4;stroke-miterlimit:4;stroke-dasharray:none;stroke-opacity:1"
         id="path1209" />
      <path
         d="m 23.708697,31.708792 q 0.03903,-0.0683 0.10733,-0.14636 0.05854,-0.08782 0.14636,-0.204904 0.09757,-0.07806 0.253691,-0.224419 0.156117,-0.146359 0.351263,-0.341506 0.175632,-0.195146 0.429322,-0.478109 0.253691,-0.29272 0.614712,-0.702527 0.156117,-0.165875 0.390293,-0.419565 0.234176,-0.263448 0.556167,-0.624469 0.273205,-0.321991 0.58544,-0.478109 0.312234,-0.156117 0.663498,-0.156117 0.351263,0 0.517138,0.224419 0.165875,0.214661 0.165875,0.634226 0,0.224418 -0.165875,0.858644 -0.165875,0.634226 -0.517138,1.67826 -0.08782,0.195146 -0.165875,0.370778 -0.05854,0.126845 -0.07806,0.224419 -0.01952,0.09757 -0.01952,0.14636 0,0.05854 0.0683,0.146359 0.04879,-0.02927 0.08782,-0.07806 0.04879,-0.04879 0.107331,-0.117088 0.07806,-0.14636 0.234176,-0.302477 0.165874,-0.165875 0.390293,-0.361021 0.08781,-0.165875 0.224418,-0.321992 0.14636,-0.165874 0.321992,-0.302477 0.03903,-0.03903 0.09757,-0.126845 0.0683,-0.08782 0.156117,-0.185389 0.126845,-0.126845 0.302477,-0.263448 0.175632,-0.136603 0.409808,-0.282962 0.263448,-0.136603 0.468351,-0.214662 0.214661,-0.07806 0.370779,-0.07806 0.302477,0 0.536653,0.14636 0.234175,0.14636 0.40005,0.458594 0.195146,0.604954 0.370778,1.122092 0.107331,0.302477 0.234176,0.448837 0.136602,0.14636 0.302477,0.14636 0.126845,0 0.224418,-0.04879 0.107331,-0.04879 0.195147,-0.146359 l 0.390293,0.897673 q -0.165875,0.136603 -0.341506,0.282963 -0.175632,0.14636 -0.341507,0.282962 -0.224418,0.204904 -0.419565,0.29272 -0.195146,0.07806 -0.390293,0.07806 -0.224418,0 -0.429322,-0.09757 -0.204904,-0.09757 -0.351264,-0.292719 -0.07806,-0.07806 -0.195146,-0.282963 -0.117088,-0.214661 -0.273205,-0.526895 -0.126845,-0.126846 -0.29272,-0.331749 -0.156117,-0.214662 -0.370778,-0.497624 l -0.08782,-0.02927 q -0.185389,0.05854 -0.370779,0.175632 -0.175631,0.117088 -0.380535,0.302477 -0.43908,0.390293 -0.634226,0.487866 -0.195147,0.09757 -0.263448,0.224419 -0.136603,0.234175 -0.468352,0.604954 -0.331749,0.370778 -0.829372,0.878159 -0.126845,0.126845 -0.253691,0.25369 -0.126845,0.117088 -0.25369,0.234176 -0.126845,0.107331 -0.29272,0.14636 -0.156117,0.04879 -0.351263,0.04879 -0.390293,0 -0.429323,-0.263448 -0.02927,-0.273205 -0.05854,-0.54641 0.14636,-0.409808 0.331749,-1.024519 0.18539,-0.614712 0.429323,-1.434327 0,-0.04879 0.02927,-0.126845 0.03903,-0.08782 0.08782,-0.224419 0.04879,-0.126845 0.0683,-0.214661 0.01952,-0.09757 0.01952,-0.165874 0,-0.0683 -0.04879,-0.107331 -0.04879,-0.03903 -0.156117,-0.03903 -0.09757,0 -0.263448,0.117088 -0.156117,0.117088 -0.380536,0.370778 -0.273205,0.29272 -0.439079,0.458594 -0.165875,0.165875 -0.224419,0.195147 -0.09757,0.0683 -0.234175,0.195146 -0.126846,0.126845 -0.29272,0.282963 -0.01952,0.03903 -0.05854,0.117088 -0.03903,0.07806 -0.126845,0.175631 -0.03903,-0.146359 -0.136603,-0.361021 -0.09757,-0.214661 -0.25369,-0.536652 z"
         style="font-style:normal;font-variant:normal;font-weight:normal;font-stretch:normal;font-size:19.983px;font-family:Mistral;-inkscape-font-specification:Mistral;fill:#ffffff;fill-opacity:1;stroke:#95672e;stroke-width:0.4;stroke-miterlimit:4;stroke-dasharray:none;stroke-opacity:1"
         id="path1211" />
      <path
         d="M 33.348934,31.279469 34.23685,30.69403 q 0.04879,-0.04879 0.117088,-0.126845 0.0683,-0.08782 0.156118,-0.243933 0.0683,-0.126846 0.175631,-0.214662 0.117088,-0.08782 0.263448,-0.156117 0.07806,-0.09757 0.224419,-0.243933 0.146359,-0.14636 0.370778,-0.341506 0.10733,-0.05854 0.273205,-0.165875 0.165875,-0.117088 0.361021,-0.302477 0.887916,-0.83913 1.551415,-1.258695 0.673255,-0.419565 1.131849,-0.419565 0.253691,0 0.370778,0.107331 0.126846,0.107331 0.126846,0.302477 0,0.204904 -0.07806,0.361021 -0.0683,0.156117 -0.224418,0.263448 -0.243933,0.175632 -0.526896,0.390293 -0.156117,0.204904 -0.380536,0.439079 -0.224418,0.224419 -0.526895,0.448837 -0.09757,0.126845 -0.165875,0.224419 -0.04879,0.04879 -0.185389,0.175632 -0.136602,0.126845 -0.361021,0.292719 -0.09757,0.214661 -0.429322,0.556168 -0.321992,0.341506 -0.868402,0.819615 -0.0683,0.0683 -0.243933,0.312234 -0.175632,0.243933 -0.458594,0.643984 l 0.0683,0.08782 q 0.214661,-0.0683 0.448837,-0.234176 0.234176,-0.165875 0.517138,-0.43908 0.331749,-0.302477 0.536653,-0.487866 0.214661,-0.195146 0.302477,-0.25369 0.0683,-0.03903 0.136603,-0.07806 0.0683,-0.03903 0.156117,-0.09757 0.448837,-0.536653 0.83913,-0.790343 0.390293,-0.263448 0.722042,-0.263448 0.204903,0 0.312234,0.165874 0.107331,0.156118 0.126845,0.478109 -0.01951,0.487866 -0.01951,0.936703 -0.0098,0.312235 0.165874,0.565925 0.185389,0.243933 0.478109,0.243933 0.08782,0 0.165875,-0.04879 0.08781,-0.04879 0.175631,-0.126846 0.0683,-0.08781 0.126846,-0.165874 0.0683,-0.07806 0.136602,-0.156117 0.03903,-0.01951 0.107331,-0.0683 0.07806,-0.04879 0.14636,-0.117087 0.136602,0.292719 0.224418,0.517138 0.09757,0.214661 0.14636,0.380535 -0.224419,0.204904 -0.448837,0.429323 -0.214661,0.214661 -0.458594,0.409807 -0.29272,0.224419 -0.565925,0.341507 -0.273205,0.10733 -0.54641,0.10733 -0.634226,0 -0.975733,-0.361021 -0.341506,-0.361021 -0.40005,-1.09282 0,-0.08782 -0.02927,-0.175632 -0.01951,-0.09757 -0.09757,-0.195146 -0.04879,0.04879 -0.107331,0.10733 -0.05854,0.04879 -0.136602,0.136603 -0.126845,0.09757 -0.321992,0.243933 -0.185389,0.14636 -0.43908,0.351263 -0.341506,0.351264 -0.575682,0.575683 -0.234175,0.224418 -0.331749,0.321991 -0.195146,0.165875 -0.458594,0.331749 -0.25369,0.165875 -0.575682,0.341507 -0.204904,0.10733 -0.351264,0.165874 -0.14636,0.0683 -0.214661,0.0683 -0.468351,0 -0.69277,-0.224418 -0.224418,-0.234176 -0.224418,-0.712285 0,-0.263447 0.117088,-0.497623 0.10733,-0.243933 0.331749,-0.468352 0.01951,-0.126845 0.01951,-0.204904 0,-0.04879 -0.02927,-0.09757 -0.01951,-0.05854 -0.05854,-0.126845 -0.05854,-0.136603 -0.126845,-0.302477 -0.07806,-0.175632 -0.165874,-0.370778 0.03903,-0.03903 0.117087,-0.14636 0.0683,-0.117088 0.165875,-0.282963 z"
         style="font-style:normal;font-variant:normal;font-weight:normal;font-stretch:normal;font-size:19.983px;font-family:Mistral;-inkscape-font-specification:Mistral;fill:#ffffff;fill-opacity:1;stroke:#95672e;stroke-width:0.4;stroke-miterlimit:4;stroke-dasharray:none;stroke-opacity:1"
         id="path1213" />
      <path
         d="m 40.540079,31.708792 q 0.156118,-0.204904 0.312235,-0.429323 0.712284,-0.585439 1.161121,-1.122092 0.458595,-0.54641 0.663498,-1.014762 l -0.09757,-0.468351 q 0.126845,-0.243933 0.624469,-0.575682 0.507381,-0.331749 0.819615,-0.331749 0.331749,0 0.556168,0.195146 0.234175,0.195147 0.448837,0.409808 0.10733,0.0683 0.156117,0.10733 0.390293,0.29272 0.585439,0.809858 0.195147,0.517138 0.195147,1.258695 0,0.390293 -0.302477,1.122092 -0.302477,0.722042 -0.302477,1.092821 0,0.04879 0.02927,0.07806 0.03903,0.02927 0.09757,0.02927 0.126845,0 0.302477,-0.10733 0.175632,-0.117088 0.380535,-0.312235 0.517139,-0.507381 0.624469,-0.556167 0.107331,-0.05854 0.263448,-0.185389 0.07806,0.195146 0.185389,0.419565 0.107331,0.224418 0.204904,0.478108 -0.08782,0.07806 -0.204904,0.18539 -0.10733,0.10733 -0.263448,0.243933 -0.331749,0.243933 -0.868401,0.595196 -0.526896,0.341507 -1.268453,0.790344 -0.195146,0.126845 -0.448837,0.204903 -0.409807,0 -0.614711,-0.117087 -0.204904,-0.126846 -0.204904,-0.400051 0,-0.10733 0.03903,-0.243933 0.04879,-0.14636 0.126845,-0.312234 0.05854,-0.126845 0.126845,-0.253691 0.0683,-0.136602 0.117088,-0.273205 0.214661,-0.614711 0.321992,-1.141607 0.117087,-0.526895 0.117087,-0.94646 0,-0.517138 -0.165874,-0.790343 -0.156117,-0.273205 -0.478109,-0.312235 -0.214661,0.117088 -0.468352,0.331749 -0.25369,0.214661 -0.517138,0.536653 -0.282962,0.351264 -0.507381,0.575682 -0.224418,0.224419 -0.370778,0.302477 -0.08782,0.14636 -0.282962,0.331749 -0.195147,0.18539 -0.517138,0.400051 -0.01951,0.03903 -0.05854,0.117088 -0.03903,0.07806 -0.126846,0.175631 -0.07806,-0.224418 -0.175631,-0.439079 -0.09757,-0.224419 -0.214662,-0.458594 z"
         style="font-style:normal;font-variant:normal;font-weight:normal;font-stretch:normal;font-size:19.983px;font-family:Mistral;-inkscape-font-specification:Mistral;fill:#ffffff;fill-opacity:1;stroke:#95672e;stroke-width:0.4;stroke-miterlimit:4;stroke-dasharray:none;stroke-opacity:1"
         id="path1215" />
      <path
         d="m 47.048216,31.708792 q 0.224419,-0.234176 0.683013,-0.565925 0.468351,-0.331749 0.69277,-0.54641 0.14636,-0.175632 0.380536,-0.419565 0.234175,-0.253691 0.556167,-0.595197 0.195146,-0.175632 0.380536,-0.273205 0.185389,-0.09757 0.370778,-0.09757 0.234176,0 0.361021,0.117087 0.136603,0.117088 0.136603,0.370779 0,0.380535 -0.29272,1.229423 -0.29272,0.848887 -0.29272,1.287966 0,0.09757 0.03903,0.136603 0.04879,0.03903 0.107331,0.03903 l 0.04879,-0.0098 q 0.185389,-0.117088 0.429322,-0.29272 0.25369,-0.185389 0.565925,-0.448837 0.25369,-0.234175 0.624468,-0.614711 0.380536,-0.380536 0.887917,-0.878159 0.195146,-0.156117 0.439079,-0.400051 0.253691,-0.243933 0.565925,-0.585439 0.126845,-0.175632 0.351264,-0.273205 0.234176,-0.09757 0.565925,-0.09757 0.224418,0 0.331749,0.08782 0.117088,0.07806 0.117088,0.243933 0,0.0683 -0.01951,0.136602 -0.0098,0.05854 -0.01951,0.117088 -0.0683,0.29272 -0.204904,0.722042 -0.136602,0.419565 -0.331749,0.995247 -0.165874,0.361021 -0.351263,0.868402 -0.175632,0.497624 -0.380536,1.102578 l 0.0683,0.08782 q 0.204904,-0.09757 0.604955,-0.458595 0.409807,-0.370778 1.024519,-0.985489 l 0.390293,0.897673 q -0.07806,0.07806 -0.195147,0.195147 -0.107331,0.10733 -0.29272,0.234176 -1.044033,0.741556 -1.795347,1.473356 -0.741557,0.722042 -1.180637,1.434326 -0.65374,1.073306 -1.09282,1.746561 -0.429322,0.673256 -0.624469,0.946461 -0.673255,0.887916 -1.278209,1.317238 -0.604954,0.429323 -1.180636,0.429323 -0.214661,0 -0.312235,-0.08782 -0.09757,-0.08782 -0.09757,-0.273205 0,-0.09757 0.04879,-0.243933 0.04879,-0.14636 0.175632,-0.312235 0.185389,-0.263448 0.341506,-0.54641 l 0.29272,-0.25369 q 0.03903,-0.126846 0.03903,-0.175632 0.03903,-0.04879 0.107331,-0.117088 0.07806,-0.0683 0.175631,-0.156117 0.0683,-0.175632 0.361021,-0.58544 0.302477,-0.40005 0.83913,-1.034276 0.400051,-0.468352 0.7318,-0.83913 0.331749,-0.361021 0.565924,-0.614711 0.03903,-0.07806 0.07806,-0.18539 0.04879,-0.10733 0.07806,-0.214661 0.126845,-0.25369 0.273205,-0.614711 0.156117,-0.361021 0.370778,-0.848887 0.09757,-0.282963 0.165874,-0.643984 0.0683,-0.370778 0.126846,-0.8001 -0.01951,-0.03903 -0.02927,-0.09757 0,-0.0683 -0.03903,-0.18539 -0.175631,0.08782 -0.390293,0.263448 -0.204903,0.175632 -0.448837,0.409808 -0.321991,0.419565 -0.65374,0.702527 -0.331749,0.273205 -0.653741,0.419565 -0.214661,0.419565 -0.556167,0.624469 -0.331749,0.195146 -0.770829,0.195146 -0.321992,0 -0.487866,-0.14636 -0.165875,-0.156117 -0.165875,-0.468351 0,-0.05854 0.0098,-0.14636 0.01951,-0.08782 0.04879,-0.204904 -0.03903,-0.09757 -0.09757,-0.273205 0.03903,-0.165874 0.0683,-0.370778 0,-0.29272 -0.04879,-0.43908 -0.03903,-0.14636 -0.136603,-0.14636 l -0.03903,0.01952 q -0.107331,0.07806 -0.302477,0.234176 -0.195147,0.156117 -0.468352,0.380535 -0.04879,-0.126845 -0.117088,-0.302477 -0.07806,-0.175631 -0.156117,-0.409807 -0.01951,-0.05854 -0.04879,-0.107331 -0.02927,-0.04879 -0.0683,-0.07806 z"
         style="font-style:normal;font-variant:normal;font-weight:normal;font-stretch:normal;font-size:19.983px;font-family:Mistral;-inkscape-font-specification:Mistral;fill:#ffffff;fill-opacity:1;stroke:#95672e;stroke-width:0.4;stroke-miterlimit:4;stroke-dasharray:none;stroke-opacity:1"
         id="path1217" />
      <path
         d="m 63.245375,26.186146 q -0.107331,0.09757 -0.165875,0.136603 -0.04879,0.03903 -0.09757,0.03903 -0.253691,-0.126845 -0.458594,-0.25369 -0.136603,-0.07806 -0.321992,-0.156118 -0.175632,-0.08782 -0.321992,-0.195146 -0.08782,-0.05854 -0.156117,-0.126845 -0.0683,-0.07806 -0.165875,-0.136603 -0.03903,-0.02927 -0.136602,-0.02927 -0.09757,0 -0.14636,-0.01951 -0.05854,-0.0098 -0.07806,-0.07806 -0.01951,-0.0683 -0.05854,-0.08782 -0.0683,0.04879 -0.126846,0.107331 -0.05854,0.04879 -0.126845,0.09757 -0.05854,0.02927 -0.136602,0.07806 -0.0683,0.03903 -0.117088,0.07806 -0.09757,0.07806 -0.185389,0.185389 -0.08782,0.09757 -0.175632,0.175632 -0.09757,0.08782 -0.224419,0.185389 -0.126845,0.08782 -0.214661,0.175632 -0.08782,0.07806 -0.156117,0.156117 -0.0683,0.0683 -0.126845,0.117088 -0.07806,0.0683 -0.224419,0.14636 -0.136602,-0.04879 -0.204904,-0.09757 -0.146359,-0.09757 -0.234175,-0.18539 -0.07806,-0.09757 -0.07806,-0.156117 0,-0.05854 0.04879,-0.136602 0.04879,-0.08782 0.136602,-0.195147 0.03903,-0.05854 0.0683,-0.136602 0.02927,-0.08782 0.0683,-0.14636 0.05854,-0.0683 0.136602,-0.117088 0.07806,-0.04879 0.126846,-0.107331 0.08781,-0.117087 0.146359,-0.234175 0.05854,-0.126846 0.136603,-0.224419 0.107331,-0.136602 0.224418,-0.263448 0.126846,-0.126845 0.214662,-0.234175 0.08782,-0.117088 0.156117,-0.214661 0.0683,-0.09757 0.136602,-0.18539 0.05854,-0.07806 0.136603,-0.136602 0.08782,-0.0683 0.14636,-0.107331 0.165874,-0.126845 0.321991,-0.165874 0.165875,-0.03903 0.312235,-0.03903 0.08782,0 0.185389,0.02927 0.09757,0.02927 0.165874,0.08782 0.0683,0.05854 0.07806,0.214661 0.0098,0.14636 0.05854,0.253691 0.03903,0.08782 0.185389,0.0683 0.14636,-0.02927 0.204904,0.05854 0.175632,0.263448 0.370778,0.565925 0.204904,0.302477 0.497624,0.526895 0.156117,0.126846 0.234176,0.243934 0.08781,0.117087 0.08781,0.195146 0,0.0683 -0.02927,0.126845 -0.02927,0.04879 -0.117087,0.117088 z m -7.76683,5.522646 q 0.03903,-0.02927 0.0683,-0.0683 0.01951,-0.03903 0.01951,-0.09757 0.165875,-0.136602 0.370779,-0.370778 0.214661,-0.243933 0.478109,-0.565925 0.214661,-0.29272 0.439079,-0.58544 0.234176,-0.292719 0.497624,-0.585439 0.214661,-0.29272 0.419565,-0.604954 0.214661,-0.321992 0.448837,-0.624469 0.390293,-0.185389 0.604954,-0.263448 0.214661,-0.07806 0.292719,-0.07806 0.14636,0 0.224419,0.09757 0.07806,0.08782 0.07806,0.263448 0,0.05854 -0.02927,0.165874 -0.02927,0.107331 -0.0683,0.234176 -0.0683,0.195147 -0.156117,0.40005 -0.07806,0.341507 -0.185389,0.683013 -0.107331,0.341506 -0.204904,0.673255 -0.09757,0.419565 -0.156117,0.770829 -0.04879,0.351264 -0.04879,0.643983 0,0.546411 0.04879,0.809858 0.05854,0.263448 0.156117,0.234176 0.09757,-0.05854 0.243933,-0.136602 0.14636,-0.08782 0.341507,-0.195147 0.175631,-0.185389 0.390293,-0.458594 0.224418,-0.273205 0.536652,-0.643983 0.175632,-0.273206 0.361021,-0.536653 0.0683,-0.07806 0.156118,-0.185389 0.09757,-0.107331 0.175631,-0.214662 0.18539,-0.468351 0.409808,-0.69277 0.234176,-0.234175 0.517138,-0.234175 0.253691,0 0.40005,0.0683 0.156118,0.05854 0.214662,0.185389 0.02927,0.0683 0.04879,0.234176 0.01951,0.165874 0.01951,0.439079 0,0.107331 0.03903,0.312235 0.04879,0.204904 0.04879,0.302477 0,0.361021 0.126845,0.54641 0.126845,0.175632 0.390293,0.175632 0.07806,0 0.185389,-0.02927 0.107331,-0.02927 0.214661,-0.0683 l 0.390293,0.897673 q -0.585439,0.351264 -0.965975,0.536653 -0.370778,0.175632 -0.556167,0.175632 -0.487867,0 -0.800101,-0.25369 -0.312234,-0.253691 -0.458594,-0.751314 -0.01951,-0.117088 -0.08782,-0.234176 -0.05854,-0.117088 -0.156117,-0.234176 -0.08782,0.09757 -0.204904,0.234176 -0.107331,0.136602 -0.234176,0.273205 -0.263448,0.321992 -0.526895,0.634226 -0.263448,0.302477 -0.536653,0.604954 -0.341507,0.40005 -0.69277,0.58544 -0.341507,0.175631 -0.643984,0.175631 -0.448837,0 -0.722042,-0.263447 -0.273205,-0.273205 -0.351263,-0.800101 -0.08782,-0.507381 -0.117088,-0.790343 -0.02927,-0.282963 -0.0098,-0.341507 -0.01951,-0.282962 -0.05854,-0.429322 -0.02927,-0.14636 -0.09757,-0.14636 l -0.05854,0.02927 L 56.1518,32.1869 q -0.02927,0.0683 -0.09757,0.175632 -0.0683,0.09757 -0.185389,0.243933 -0.03903,-0.146359 -0.136603,-0.361021 -0.09757,-0.214661 -0.25369,-0.536652 z"
         style="font-style:normal;font-variant:normal;font-weight:normal;font-stretch:normal;font-size:19.983px;font-family:Mistral;-inkscape-font-specification:Mistral;fill:#ffffff;fill-opacity:1;stroke:#95672e;stroke-width:0.4;stroke-miterlimit:4;stroke-dasharray:none;stroke-opacity:1"
         id="path1219" />
    </g>
  </g>
</svg>
